<svg viewBox="0 0 101 102" version="1.1" xmlns="http://www.w3.org/2000/svg" xmlns:xlink="http://www.w3.org/1999/xlink" id="svg-18-plus">
    <title>18 plus</title>
    <g id="Symbols" stroke="none" stroke-width="1" fill="none" fill-rule="evenodd">
        <g id="Icon/18+" fill="#D8D8D8">
            <path d="M30.875,28.2144 L23.957,28.2144 C21.298,28.2144 19.929,28.6704 19.929,30.8744 L19.929,33.3824 C19.929,35.5874 21.298,36.0424 23.957,36.0424 L25.554,36.0424 C26.542,36.0424 26.997,36.5754 26.997,38.0954 L26.997,70.9354 C26.997,73.5964 27.454,74.9644 29.659,74.9644 L32.242,74.9644 C34.447,74.9644 34.904,73.5964 34.904,70.9354 L34.904,30.8744 C34.904,28.6704 33.535,28.2144 30.875,28.2144" id="Fill-1"></path>
            <path d="M93.8819,45.5454 C93.8819,46.6864 93.3489,47.2934 92.2849,47.2934 L87.1929,47.2934 L87.1929,43.7214 C87.1929,41.0614 86.8119,39.6924 84.5309,39.6924 L82.2499,39.6924 C79.9709,39.6924 79.5899,41.0614 79.5899,43.7214 L79.5899,47.2934 L76.0179,47.2934 C73.3579,47.2934 71.9879,47.6744 71.9879,49.9544 L71.9879,52.3874 C71.9879,54.6674 73.3579,55.0484 76.0179,55.0484 L79.5899,55.0484 L79.5899,58.6204 C79.5899,61.2804 79.9709,62.6494 82.2499,62.6494 L84.5309,62.6494 C86.8119,62.6494 87.1929,61.2804 87.1929,58.6204 L87.1929,55.0484 L92.2849,55.0484 C93.2739,55.0484 93.8059,55.5804 93.8819,56.5674 L93.8819,68.1224 C93.8819,70.9354 93.0449,73.0634 91.0689,74.9644 L74.1169,91.9154 C72.1399,93.8924 69.9359,94.8054 67.1999,94.8054 L33.2949,94.8054 C30.5589,94.8054 28.3549,93.8924 26.3779,91.9154 L9.4269,74.9644 C7.4499,72.9874 6.5359,70.9354 6.6129,68.1224 L6.6129,34.5994 C6.6129,31.7864 7.5269,29.3534 9.5789,27.3014 L26.8339,9.8164 C28.5829,8.0694 30.7869,7.5364 33.2949,7.5364 L67.1999,7.5364 C69.7079,7.5364 71.9119,8.0694 73.6609,9.8164 L90.9169,27.3014 C92.8929,29.3534 93.8819,31.7864 93.8819,34.5994 L93.8819,45.5454 Z M78.2969,5.4084 C75.3329,2.5204 71.6089,0.9994 67.1229,0.9994 L33.3709,0.9994 C28.8859,0.9994 25.0849,2.5204 22.1969,5.4084 L4.3319,23.1964 C1.5209,26.0094 -0.0001,29.7334 -0.0001,33.8394 L-0.0001,68.1224 C-0.0001,72.8354 1.5969,76.4844 4.7889,79.6024 L21.7409,96.5534 C25.0849,99.8984 28.8099,101.4184 33.5999,101.3424 L66.8959,101.3424 C71.5319,101.3424 75.3329,99.9734 78.7539,96.5534 L95.7059,79.6024 C98.8219,76.4844 100.4949,72.7594 100.4949,68.1224 L100.4949,33.8394 C100.4949,29.7334 98.9749,26.0094 96.1619,23.1964 L78.2969,5.4084 Z" id="Fill-3"></path>
            <path d="M54.96,68.3501 C50.096,68.3501 48.347,66.4511 48.347,61.6611 C48.347,56.8711 50.096,54.6671 54.96,54.6671 C59.825,54.6671 61.574,56.8711 61.574,61.6611 C61.574,66.4511 59.825,68.3501 54.96,68.3501 M54.96,34.3711 C59.142,34.3711 60.814,35.8911 60.814,40.9851 C60.814,45.9251 59.142,47.5991 54.96,47.5991 C50.78,47.5991 49.107,45.9251 49.107,40.9851 C49.107,35.8911 50.78,34.3711 54.96,34.3711 M63.93,50.7151 C68.187,47.5991 68.263,44.4061 68.263,41.8211 L68.263,39.2371 C67.807,30.6461 64.919,27.3771 54.96,27.3771 C45.003,27.3771 42.114,30.6461 41.657,39.2371 L41.657,41.8211 C41.657,44.4061 41.733,47.5991 45.99,50.7151 C40.897,52.6911 40.518,57.0251 40.518,62.7251 C40.518,71.1631 43.481,75.3441 54.96,75.5731 C66.439,75.3441 69.404,71.1631 69.404,62.7251 C69.404,57.0251 69.024,52.6911 63.93,50.7151" id="Fill-6"></path>
        </g>
    </g>
</svg>