<svg width="10px" height="16px" viewBox="0 0 10 16" version="1.1" xmlns="http://www.w3.org/2000/svg" xmlns:xlink="http://www.w3.org/1999/xlink" id="svg-locker">
    <g id="Design" stroke="none" stroke-width="1" fill="none" fill-rule="evenodd">
        <g id="Auth-Free/Search-Result-320-Mobile" transform="translate(-290.000000, -622.000000)" fill="#D8D8D8">
            <g id="Card" transform="translate(20.000000, 280.000000)">
                <g id="Icon/Locker-Gray" transform="translate(270.000000, 342.000000)">
                    <path d="M8,6 L2,6 L2,4 C2,2.343 3.343,1 5,1 C6.657,1 8,2.343 8,4 L8,6 Z M4,13 L6,13 L6,9 L4,9 L4,13 Z M9,6 L9,4 C9,1.791 7.209,0 5,0 C2.791,0 1,1.791 1,4 L1,6 L0,6 L0,11 C0,13.761 2.239,16 5,16 C7.761,16 10,13.761 10,11 L10,6 L9,6 Z" id="Page-1"></path>
                </g>
            </g>
        </g>
    </g>
</svg>