<svg width="10px" height="16px" viewBox="0 0 10 16" version="1.1" xmlns="http://www.w3.org/2000/svg" xmlns:xlink="http://www.w3.org/1999/xlink">
    <g id="Symbols" stroke="none" stroke-width="1" fill="none" fill-rule="evenodd">
        <g id="Icon/OK" fill="#828282">
            <path d="M6.60419782,11.5295246 C7.41996891,11.3412086 8.19848814,11.0144607 8.90682172,10.5631067 C9.44983519,10.2167664 9.6130648,9.48979925 9.27145809,8.93937182 C8.93050252,8.38887491 8.21384125,8.22275664 7.67072496,8.5683674 C7.67027944,8.56864531 7.6698682,8.56888848 7.66942268,8.56920112 C6.04480312,9.60453966 3.95383283,9.60374068 2.33054981,8.56920112 C1.7881532,8.22286086 1.07149193,8.38783276 0.729816678,8.93763491 C0.729439704,8.93819072 0.729097001,8.93881601 0.728720027,8.93937182 C0.386976234,9.4896603 0.549965953,10.2165927 1.09277381,10.5631067 C1.80107312,11.014287 2.57942099,11.3410349 3.39502073,11.5295246 L1.17820976,13.7769846 C0.724539046,14.2369883 0.724676127,14.9827142 1.17848392,15.442579 C1.63229171,15.9024091 2.36793875,15.9022702 2.82160946,15.4422664 L4.9995236,13.2342343 L7.17877428,15.4424748 C7.63148542,15.902027 8.36603581,15.9025828 8.81943236,15.4436906 L8.82063182,15.4424748 C9.27423399,14.984069 9.27536491,14.2397327 8.82313355,13.7799026 C8.82231107,13.7791036 8.82148858,13.7782351 8.82063182,13.7774014 L6.60419782,11.5295246 M4.99990057,8.25075566 C7.18689635,8.25075566 8.96545826,6.44850097 8.96545826,4.2325833 C8.96545826,2.01551927 7.18710197,0.212500334 4.99990057,0.212500334 C2.81304188,0.212500334 1.03434289,2.01569296 1.03434289,4.2325833 C1.03434289,6.44850097 2.81304188,8.25075566 4.99990057,8.25075566 M4.99990057,2.5683089 C5.90528859,2.5683089 6.64179238,3.3148337 6.64179238,4.2325833 C6.64179238,5.14960339 5.90511723,5.8961282 4.99990057,5.8961282 C4.09506089,5.8961282 3.35838574,5.14960339 3.35838574,4.2325833 C3.35821439,3.31462528 4.09526651,2.5683089 4.99990057,2.5683089" id="Fill-1"></path>
        </g>
    </g>
</svg>