<svg width="16px" height="10px" viewBox="0 0 16 10" version="1.1" xmlns="http://www.w3.org/2000/svg" xmlns:xlink="http://www.w3.org/1999/xlink">
    <g id="Symbols" stroke="none" stroke-width="1" fill="none" fill-rule="evenodd">
        <g id="Icon/VK" fill="#828282">
            <path d="M15.3419386,1.04887406 C15.4489729,0.692173522 15.3419386,0.429999828 14.8327444,0.429999828 L13.1490601,0.429999828 C12.7209233,0.429999828 12.5235714,0.656455363 12.4165372,0.906121688 C12.4165372,0.906121688 11.5603838,2.99316861 10.3474095,4.34877498 C9.9549908,4.74119367 9.77664053,4.8661471 9.56245184,4.8661471 C9.45553789,4.8661471 9.30063894,4.74119367 9.30063894,4.38449313 L9.30063894,1.04887406 C9.30063894,0.620737204 9.17628683,0.429999828 8.81958629,0.429999828 L6.17379671,0.429999828 C5.90633144,0.429999828 5.74541933,0.628674573 5.74541933,0.817006685 C5.74541933,1.22289486 6.35178619,1.3164596 6.41432304,2.45799754 L6.41432304,4.93734289 C6.41432304,5.48105265 6.3161883,5.57954818 6.10211987,5.57954818 C5.5313509,5.57954818 4.14291269,3.48336126 3.31947082,1.08459222 C3.15807765,0.618331941 2.99620344,0.429999828 2.56590184,0.429999828 L0.882217566,0.429999828 C0.401164917,0.429999828 0.304954387,0.656455363 0.304954387,0.906121688 C0.304954387,1.35205749 0.875723356,3.56393758 2.96265001,6.489339 C4.35397454,8.48703039 6.31426409,9.57000017 8.09800731,9.57000017 C9.16822919,9.57000017 9.30063894,9.32947385 9.30063894,8.91516725 L9.30063894,7.40526325 C9.30063894,6.9242106 9.40202078,6.82824059 9.74092237,6.82824059 C9.9905887,6.82824059 10.4187256,6.95307376 11.4176314,7.91626143 C12.5591693,9.05779936 12.7475014,9.57000017 13.3895865,9.57000017 L15.0732707,9.57000017 C15.5543234,9.57000017 15.7948497,9.32947385 15.656066,8.85479514 C15.5042939,8.38167986 14.959141,7.695338 14.2359986,6.88163744 C13.8435799,6.41790268 13.2548917,5.91857003 13.0765414,5.66878345 C12.8267549,5.34780107 12.8981912,5.20492843 13.0765414,4.91954394 C13.0765414,4.91954394 15.1278702,2.02998094 15.3419386,1.04887406" id="Fill-1"></path>
        </g>
    </g>
</svg>