<svg xmlns="http://www.w3.org/2000/svg" width="246" height="24" viewBox="0 0 246 24">
  <g fill="none" fill-rule="evenodd">
    <path fill="#00B956" fill-rule="nonzero" d="M135.015894,3 L139,3 L139,19 L135.015894,19 L135.040392,12.5039512 L127,12.5039512 L127,19 L123,19 L123,3 L127,3 L127,9.50395124 L135.015894,9.50395124 L135.015894,3 Z M68.6804348,5.1124183 L75,19 L71.0287053,19 L69.6450096,15.6954248 L61.3738979,15.6954248 L59.9902022,19 L56,19 L62.3195652,5.1124183 C62.9597826,3.69019608 64.2608696,3 65.5,3 C66.7391304,3 68.0402174,3.69019608 68.6804348,5.1124183 Z M17.6174497,3.00673401 C18.477349,1.00224467 19.6518456,0 21.4974832,0 C23.2172819,0 25,1.25813692 25,3.98765432 L25.0152262,19 L21,19 L21,4.39281706 L15.9186242,16.291807 C15.2265101,17.9551066 14.1149329,19 12.5,19 C10.8850671,19 9.77348993,17.9551066 9.08137584,16.291807 L4,4.39281706 L4,19 L-1.13686838e-13,19 L-1.13686838e-13,3.96632997 C-1.13686838e-13,1.25813692 1.78271812,3.03037306e-15 3.50251678,3.03037306e-15 C5.34815436,3.03037306e-15 6.52265101,1.00224467 7.38255034,3.00673401 L12.5,14.9910213 L17.6174497,3.00673401 Z M32,15.6418828 C32,15.8349123 32.2059477,16 32.3954214,16 L42,16 L42,19 L30.0093077,19 C28.4817206,19 28,18.4351154 28,17.0128902 L28,4.99610797 C28,3.51255058 28.5082076,3 30.0093077,3 L42,3 L42,6 L32.3954214,6 C32.2059477,6 32,6.14752208 32,6.34055157 L32,9.52177326 L41.7684211,9.52177326 L41.7684211,12.5217733 L32,12.5217733 L32,15.6418828 Z M49,19 L45,19 L45,5.02071324 C45,3.47807979 45.4999469,3 47.0188503,3 L59,3 L59,6 L49.5,6 C49.1058255,6 49,6.09637501 49,6.5 L49,19 Z M111.692308,3 C117.629371,3 120,5.54830287 120,11.0208877 C120,16.4099217 117.587413,19 111.65035,19 L110.34965,19 C104.412587,19 102,16.4099217 102,11.0208877 C102,5.54830287 104.34965,3 110.307692,3 L111.692308,3 Z M83.104712,2.84217094e-14 L90.8743455,2.84217094e-14 C96.6544503,2.84217094e-14 98.9790576,3.07514451 99,8.43468208 C99,9.26936416 98.9371728,10.0381503 98.8324607,10.7630058 C98.2251309,14.5630058 96.4240838,17 91,17 L89,17 L89,19 L85,19 L85,17 L83,17 C77.5759162,17 75.7748691,14.5630058 75.1675393,10.7630058 C75.0418848,10.0381503 75,9.26936416 75,8.43468208 C75,3.07514451 77.3036649,2.84217094e-14 83.104712,2.84217094e-14 Z M91,14 C94,14 95,12 95,8.5 C95,5 94,3 91,3 L89,3 L89,14 L91,14 Z M110.392713,16 L111.607287,16 C114.744939,16 116,14.4570491 116,10.9743886 C116,7.62398096 114.825911,5.9708193 111.607287,5.9708193 L110.392713,5.9708193 C107.072874,5.9708193 106,7.62398096 106,10.9964307 C106,14.4570491 107.234818,16 110.392713,16 Z M62.7354152,12.2615039 L68.2274044,12.2615039 L65.7982553,6.48260382 C65.7348862,6.29068462 65.5870249,6.24803591 65.4814098,6.24803591 C65.3757946,6.24803591 65.2490564,6.31200898 65.1645642,6.48260382 L62.7354152,12.2615039 Z M85,14 L85,3 L83,3 C79.9889451,3 79,6 79,8.5 C79,11 79.9889451,14 83,14 L85,14 Z"/>
    <path fill="#333" fill-opacity="0.9" d="M167.797,2.935 L160.291,2.935 C159.994,2.935 159.67,2.908 159.427,3.178 C159.238,3.367 159.184,3.745 159.184,4.069 L159.184,19 L155.62,19 L155.62,2.665 C155.62,1.99 155.701,1.369 156.322,0.775 C156.997,0.127 157.591,0.1 158.455,0.1 L169.633,0.1 C170.389,0.1 171.118,0.127 171.766,0.775 C172.333,1.342 172.441,2.017 172.441,2.665 L172.441,19 L168.877,19 L168.877,4.069 C168.877,3.799 168.904,3.421 168.661,3.178 C168.418,2.908 168.04,2.935 167.797,2.935 Z M178.3,19 L178.3,23.59 L175.141,23.59 L175.141,6.904 C175.141,5.959 175.6,5.419 175.951,5.149 C176.491,4.744 177.193,4.69 177.733,4.69 L182.728,4.69 C183.646,4.69 185.563,4.825 186.94,6.256 C188.398,7.768 188.452,9.982 188.452,11.548 C188.452,13.438 188.344,15.49 187.318,16.948 C185.968,18.892 183.754,19 182.296,19 L178.3,19 Z M178.3,16.57 L181.891,16.57 C183.457,16.57 184.24,15.814 184.591,15.247 C184.888,14.815 185.185,13.951 185.185,11.818 C185.185,9.874 184.969,9.118 184.807,8.74 C184.402,7.822 183.457,7.12 182.053,7.12 L178.948,7.12 C178.813,7.12 178.624,7.228 178.516,7.309 C178.354,7.471 178.3,7.633 178.3,7.795 L178.3,16.57 Z M203.194,19 L195.256,19 C193.798,19 192.07,18.865 190.882,17.191 C189.937,15.841 189.856,13.87 189.856,11.98 C189.856,9.307 189.991,7.336 191.557,5.986 C193.123,4.636 195.553,4.636 196.903,4.636 C198.577,4.636 200.305,4.717 201.628,5.554 C203.302,6.607 203.653,8.389 203.653,10.198 C203.653,10.927 203.572,11.764 202.978,12.358 C202.546,12.79 202.006,12.898 201.439,12.898 L193.123,12.898 C193.123,13.519 193.204,14.437 193.312,14.869 C193.717,16.408 195.04,16.57 196.201,16.57 L203.194,16.57 L203.194,19 Z M193.123,10.468 L199.684,10.468 C200.305,10.468 200.386,10.009 200.386,9.631 C200.386,8.74 199.927,8.065 199.468,7.714 C198.685,7.12 197.659,7.066 196.768,7.066 C195.931,7.066 194.635,7.039 193.771,8.011 C193.123,8.74 193.15,9.523 193.123,10.468 Z M217.504,19 L210.619,19 C209.539,19 207.649,18.784 206.353,17.245 C205.165,15.841 205.057,14.059 205.057,12.034 C205.057,10.333 205.084,7.876 206.677,6.229 C207.271,5.635 208.486,4.69 211.051,4.69 L217.18,4.69 L217.18,7.12 L212.077,7.12 C209.944,7.12 208.918,8.173 208.567,9.388 C208.351,10.144 208.324,11.656 208.324,12.088 C208.324,12.925 208.405,14.302 208.783,15.058 C209.485,16.435 211.051,16.57 212.374,16.57 L217.504,16.57 L217.504,19 Z M231.355,19 L224.47,19 C223.39,19 221.5,18.784 220.204,17.245 C219.016,15.841 218.908,14.059 218.908,12.034 C218.908,10.333 218.935,7.876 220.528,6.229 C221.122,5.635 222.337,4.69 224.902,4.69 L231.031,4.69 L231.031,7.12 L225.928,7.12 C223.795,7.12 222.769,8.173 222.418,9.388 C222.202,10.144 222.175,11.656 222.175,12.088 C222.175,12.925 222.256,14.302 222.634,15.058 C223.336,16.435 224.902,16.57 226.225,16.57 L231.355,16.57 L231.355,19 Z M233.812,4.69 L241.939,4.69 C243.154,4.69 244.261,5.122 244.909,5.797 C245.503,6.418 245.962,7.579 245.962,9.172 L245.962,16.597 C245.962,17.11 245.908,17.92 245.395,18.433 C244.882,18.946 244.099,19 243.424,19 L236.593,19 C235.81,19 234.811,19 234.001,18.298 C232.84,17.299 232.759,15.463 232.759,14.41 C232.759,13.141 232.894,11.872 233.974,10.927 C234.865,10.144 235.837,10.09 236.593,10.09 L242.803,10.09 L242.803,9.091 C242.803,8.659 242.749,8.173 242.398,7.741 C241.966,7.201 241.345,7.12 240.859,7.12 L233.812,7.12 L233.812,4.69 Z M242.803,12.52 L237.538,12.52 C237.322,12.52 236.728,12.547 236.377,13.006 C236.269,13.141 236.026,13.519 236.026,14.545 C236.026,14.977 236.08,15.733 236.458,16.138 C236.674,16.354 237.079,16.57 237.484,16.57 L241.885,16.57 C242.074,16.57 242.371,16.57 242.587,16.408 C242.803,16.219 242.803,16.03 242.803,15.814 L242.803,12.52 Z"/>
    <rect width="4" height="4" x="145" y="15" fill="#00B956" rx="2"/>
  </g>
</svg>