<svg width="16px" height="12px" viewBox="0 0 16 12" version="1.1" xmlns="http://www.w3.org/2000/svg" xmlns:xlink="http://www.w3.org/1999/xlink">
    <g id="Symbols" stroke="none" stroke-width="1" fill="none" fill-rule="evenodd">
        <g id="Icon/Twitter" fill="#828282">
            <path d="M13.7988749,3.41698186 C13.7988749,3.28761835 13.7962538,3.15883731 13.790371,3.03075521 C14.3736426,2.60911522 14.8806706,2.08298261 15.2807015,1.4839265 C14.7454243,1.72168508 14.1693169,1.88197701 13.565077,1.95425981 C14.1818398,1.58445842 14.6554348,0.999206515 14.8787485,0.301657069 C14.3013597,0.643850038 13.6622889,0.892791783 12.9818054,1.02675669 C12.4366265,0.446106186 11.6602125,0.0828865519 10.8010897,0.0828865519 C9.15110802,0.0828865519 7.81314808,1.4208465 7.81314808,3.07018749 C7.81314808,3.30468432 7.83941685,3.5325994 7.89067299,3.75136991 C5.4078373,3.62654957 3.20609493,2.43769839 1.73283043,0.630045828 C1.47602552,1.07143107 1.32819816,1.58445842 1.32819816,2.1316177 C1.32819816,3.16809836 1.85567042,4.08307867 2.65765425,4.61835584 C2.16763392,4.60327023 1.70720236,4.46860638 1.30455044,4.24459375 C1.30390974,4.25705832 1.30390974,4.26958112 1.30390974,4.28268638 C1.30390974,5.72974036 2.33380865,6.93763786 3.70071666,7.21156697 C3.44979457,7.27983083 3.18576721,7.3167003 2.91317775,7.3167003 C2.720676,7.3167003 2.5334746,7.29759574 2.35157356,7.26276486 C2.73185916,8.44969394 3.83468157,9.31341811 5.14247029,9.33776478 C4.11973559,10.1391079 2.83169214,10.6166054 1.43199184,10.6166054 C1.19091325,10.6166054 0.953154667,10.6028012 0.719298536,10.5751928 C2.04153217,11.42255 3.61136789,11.9171134 5.29880151,11.9171134 C10.7938673,11.9171134 13.7988749,7.36457819 13.7988749,3.41698186 Z" id="Page-1"></path>
        </g>
    </g>
</svg>